<?xml version='1.0' encoding='utf-8'?>
<svg xmlns="http://www.w3.org/2000/svg" version="2.0" width="1000" height="500" viewBox="0 0 1000 500">
  <rect x="0" y="0" width="1000" height="500" fill="white" />
  <text x="50" y="30" font-family="Arial" font-size="24" fill="darkblue">Altimetría: Autódromo Internacional do Algarve</text>
  <polyline points="50.0,349.3016759776537 111.89560039052665,437.2905027932961 131.67197529609786,420.53072625698326 150.28936079978445,396.927374301676 160.86737556381183,384.63687150838 181.87033101991955,361.87150837988827 195.43627214935438,362.15083798882694 206.97845476915197,360.33519553072625 226.38904228201858,257.68156424581014 305.6197843268055,277.51396648044704 333.94643953684607,257.96089385474863 345.45085063239696,202.6536312849163 367.22116442320015,155.44692737430165 389.99938151890126,143.7150837988828 407.8613365376545,208.93854748603366 423.38742097799536,200.97765363128494 438.86579401928776,108.51955307262568 489.2887909136291,219.69273743016768 516.1980199769396,177.65363128491623 542.7514015223471,50.0 557.8103118470056,69.27374301675991 574.9665357548342,94.97206703910615 597.4465566064827,249.16201117318442 620.6323085690557,227.23463687150834 642.8499167259379,181.56424581005587 664.3101064229263,114.1061452513967 687.6966438564948,117.73743016759789 726.6609530793734,245.1117318435754 757.112753522029,269.2737430167598 832.7214051890566,450.0 950.0,349.3016759776537 950.0,450 50.0,450 50.0,349.3016759776537" stroke="none" stroke-width="0" fill="lightgrey" />
  <polyline points="50.0,349.3016759776537 111.89560039052665,437.2905027932961 131.67197529609786,420.53072625698326 150.28936079978445,396.927374301676 160.86737556381183,384.63687150838 181.87033101991955,361.87150837988827 195.43627214935438,362.15083798882694 206.97845476915197,360.33519553072625 226.38904228201858,257.68156424581014 305.6197843268055,277.51396648044704 333.94643953684607,257.96089385474863 345.45085063239696,202.6536312849163 367.22116442320015,155.44692737430165 389.99938151890126,143.7150837988828 407.8613365376545,208.93854748603366 423.38742097799536,200.97765363128494 438.86579401928776,108.51955307262568 489.2887909136291,219.69273743016768 516.1980199769396,177.65363128491623 542.7514015223471,50.0 557.8103118470056,69.27374301675991 574.9665357548342,94.97206703910615 597.4465566064827,249.16201117318442 620.6323085690557,227.23463687150834 642.8499167259379,181.56424581005587 664.3101064229263,114.1061452513967 687.6966438564948,117.73743016759789 726.6609530793734,245.1117318435754 757.112753522029,269.2737430167598 832.7214051890566,450.0 950.0,349.3016759776537 " stroke="red" stroke-width="3" fill="none" />
  <line x1="50" y1="450" x2="950" y2="450" stroke="black" stroke-width="2" />
  <line x1="50" y1="50" x2="50" y2="450" stroke="black" stroke-width="2" />
  <line x1="50.0" y1="450" x2="50.0" y2="455" stroke="black" stroke-width="1" />
  <text x="40.0" y="470" font-family="Arial" font-size="10" fill="black">0km</text>
  <line x1="248.7974960350944" y1="450" x2="248.7974960350944" y2="455" stroke="black" stroke-width="1" />
  <text x="238.7974960350944" y="470" font-family="Arial" font-size="10" fill="black">1km</text>
  <line x1="447.5949920701888" y1="450" x2="447.5949920701888" y2="455" stroke="black" stroke-width="1" />
  <text x="437.5949920701888" y="470" font-family="Arial" font-size="10" fill="black">2km</text>
  <line x1="646.3924881052833" y1="450" x2="646.3924881052833" y2="455" stroke="black" stroke-width="1" />
  <text x="636.3924881052833" y="470" font-family="Arial" font-size="10" fill="black">3km</text>
  <line x1="845.1899841403776" y1="450" x2="845.1899841403776" y2="455" stroke="black" stroke-width="1" />
  <text x="835.1899841403776" y="470" font-family="Arial" font-size="10" fill="black">4km</text>
  <text x="5" y="450" font-family="Arial" font-size="10" fill="black">96.2m</text>
  <line x1="45" y1="50.0" x2="50" y2="50.0" stroke="black" stroke-width="1" />
  <text x="5" y="55.0" font-family="Arial" font-size="10" fill="black">124.8m</text>
  <text x="50.0" y="339.3016759776537" font-family="Arial" font-size="10" fill="green">Salida</text>
  <circle cx="50.0" cy="349.3016759776537" r="4" fill="green" stroke="none" stroke-width="0" />
</svg>