<?xml version='1.0' encoding='utf-8'?>
<svg xmlns="http://www.w3.org/2000/svg" version="2.0" width="1000" height="500" viewBox="0 0 1000 500">
  <rect x="0" y="0" width="1000" height="500" fill="white" />
  <text x="80" y="40" font-family="Arial" font-size="20" fill="darkblue">Altimetria: Ruta del Camino de Santiago por Leon</text>
  <polyline points="80.0,308.1632653061224 80.0,308.1632653061224 93.08411214953271,300.40816326530614 108.78504672897196,292.65306122448976 501.3084112149533,440.0 920.0,60.0 920.0,440 80.0,440 80.0,308.1632653061224" stroke="none" stroke-width="0" fill="lightgrey" />
  <polyline points="80.0,308.1632653061224 80.0,308.1632653061224 93.08411214953271,300.40816326530614 108.78504672897196,292.65306122448976 501.3084112149533,440.0 920.0,60.0 " stroke="blue" stroke-width="3" fill="none" />
  <line x1="80" y1="440" x2="920" y2="440" stroke="black" stroke-width="2" />
  <line x1="80" y1="60" x2="80" y2="440" stroke="black" stroke-width="2" />
  <line x1="80.0" y1="440" x2="80.0" y2="445" stroke="black" stroke-width="1" />
  <text x="65.0" y="460" font-family="Arial" font-size="10" fill="black">0m</text>
  <line x1="248.0" y1="440" x2="248.0" y2="445" stroke="black" stroke-width="1" />
  <text x="233.0" y="460" font-family="Arial" font-size="10" fill="black">6420m</text>
  <line x1="416.0" y1="440" x2="416.0" y2="445" stroke="black" stroke-width="1" />
  <text x="401.0" y="460" font-family="Arial" font-size="10" fill="black">12840m</text>
  <line x1="584.0" y1="440" x2="584.0" y2="445" stroke="black" stroke-width="1" />
  <text x="569.0" y="460" font-family="Arial" font-size="10" fill="black">19260m</text>
  <line x1="752.0" y1="440" x2="752.0" y2="445" stroke="black" stroke-width="1" />
  <text x="737.0" y="460" font-family="Arial" font-size="10" fill="black">25680m</text>
  <line x1="920.0" y1="440" x2="920.0" y2="445" stroke="black" stroke-width="1" />
  <text x="905.0" y="460" font-family="Arial" font-size="10" fill="black">32100m</text>
  <line x1="75" y1="440.0" x2="80" y2="440.0" stroke="black" stroke-width="1" />
  <text x="5" y="445.0" font-family="Arial" font-size="10" fill="black">820m</text>
  <line x1="75" y1="364.00000000000034" x2="80" y2="364.00000000000034" stroke="black" stroke-width="1" />
  <text x="5" y="369.00000000000034" font-family="Arial" font-size="10" fill="black">830m</text>
  <line x1="75" y1="287.99999999999983" x2="80" y2="287.99999999999983" stroke="black" stroke-width="1" />
  <text x="5" y="292.99999999999983" font-family="Arial" font-size="10" fill="black">840m</text>
  <line x1="75" y1="212.00000000000017" x2="80" y2="212.00000000000017" stroke="black" stroke-width="1" />
  <text x="5" y="217.00000000000017" font-family="Arial" font-size="10" fill="black">849m</text>
  <line x1="75" y1="135.99999999999966" x2="80" y2="135.99999999999966" stroke="black" stroke-width="1" />
  <text x="5" y="140.99999999999966" font-family="Arial" font-size="10" fill="black">859m</text>
  <line x1="75" y1="60.0" x2="80" y2="60.0" stroke="black" stroke-width="1" />
  <text x="5" y="65.0" font-family="Arial" font-size="10" fill="black">869m</text>
  <circle cx="80.0" cy="308.1632653061224" r="4" fill="red" stroke="none" stroke-width="0" />
  <text x="85.0" y="298.1632653061224" font-family="Arial" font-size="9" fill="red">Inicio</text>
  <circle cx="80.0" cy="308.1632653061224" r="4" fill="red" stroke="none" stroke-width="0" />
  <text x="85.0" y="298.1632653061224" font-family="Arial" font-size="9" fill="red">Albergue de Peregrinos de Leon</text>
  <circle cx="93.08411214953271" cy="300.40816326530614" r="4" fill="red" stroke="none" stroke-width="0" />
  <text x="98.08411214953271" y="290.40816326530614" font-family="Arial" font-size="9" fill="red">Catedral de Leon</text>
  <circle cx="108.78504672897196" cy="292.65306122448976" r="4" fill="red" stroke="none" stroke-width="0" />
  <text x="113.78504672897196" y="282.65306122448976" font-family="Arial" font-size="9" fill="red">Iglesia de Santa Maria del Camino</text>
  <circle cx="501.3084112149533" cy="440.0" r="4" fill="red" stroke="none" stroke-width="0" />
  <text x="506.3084112149533" y="430.0" font-family="Arial" font-size="9" fill="red">Hospital de Orbigo</text>
  <circle cx="920.0" cy="60.0" r="4" fill="red" stroke="none" stroke-width="0" />
  <text x="925.0" y="50.0" font-family="Arial" font-size="9" fill="red">Astorga</text>
</svg>